# xmcd
#
# Track frame offsets:
#	225
#	12888
#	22800
#	32160
#	46041
#	58818
#	70622
#	81758
#	95490
#	109017
#	126383
#
# Disc length: 1840 seconds
#
# Revision: 1
# Processed by: cddbd v1.5.2PL0 Copyright (c) Steve Scherf et al.
# Submitted via: audiograbber 1.83.01
#
DISCID=84072d0b
DTITLE=S-umici - Poprve
DYEAR=2014
DGENRE=Country
TTITLE0=Navrat
TTITLE1=Rovnou, jo tady rovnou
TTITLE2=Cesty toulavy
TTITLE3=Kalifornie
TTITLE4=Dudy v Edinburku
TTITLE5=Tva mama vi
TTITLE6=Tennessee waltz
TTITLE7=Vdovy z Cordoby
TTITLE8=Oranzovy expres
TTITLE9=Tajne prani (In crowd)
TTITLE10=S-umici
EXTD=zvuk blatna\nwww.zvukblatna.cz
EXTT0=
EXTT1=
EXTT2=
EXTT3=
EXTT4=
EXTT5=
EXTT6=
EXTT7=
EXTT8=
EXTT9=
EXTT10=
PLAYORDER=
